<svg width="22" height="22" viewBox="0 0 22 22" fill="none" xmlns="http://www.w3.org/2000/svg">
<g clip-path="url(#clip0)">
<path d="M7.13234 3.91017H7.77687V5.2422C7.77687 5.59845 8.06514 5.88673 8.4214 5.88673H10.9995C11.3558 5.88673 11.6441 5.59845 11.6441 5.2422V3.91017H12.2886C12.5491 3.91017 12.7846 3.75346 12.884 3.51236C12.9841 3.27131 12.9287 2.99433 12.7443 2.80991L10.1661 0.188815C9.91439 -0.0629385 9.50649 -0.0629385 9.25473 0.188815L6.67661 2.80991C6.49219 2.99433 6.4368 3.27126 6.53688 3.51236C6.63635 3.75346 6.87177 3.91017 7.13234 3.91017Z" fill="#F8C02D"/>
<path d="M15.5112 11.6875C12.6635 11.6875 10.355 13.996 10.355 16.8437C10.355 19.6914 12.6635 22 15.5112 22C18.359 22 20.6675 19.6914 20.6675 16.8437C20.6675 13.996 18.359 11.6875 15.5112 11.6875ZM16.5913 19.1633C16.4516 19.2331 16.3053 19.2881 16.1555 19.3297V19.5078C16.1555 19.8637 15.867 20.1523 15.511 20.1523C15.1551 20.1523 14.8665 19.8637 14.8665 19.5078V19.3498C14.5982 19.2823 14.348 19.1687 14.136 19.0098C13.8513 18.7962 13.7935 18.3922 14.0071 18.1074C14.2207 17.8227 14.6247 17.7649 14.9095 17.9785C15.1673 18.1719 15.6631 18.1862 16.0147 18.0104C16.1561 17.9397 16.2323 17.8546 16.2323 17.8105C16.2323 17.7334 16.2323 17.7215 16.1466 17.6757C15.9784 17.5859 15.681 17.5308 15.3935 17.4775C15.0095 17.4062 14.6125 17.3326 14.2685 17.149C13.7662 16.8808 13.5006 16.441 13.5006 15.8769C13.5006 15.3122 13.8393 14.819 14.4297 14.5238C14.5697 14.4538 14.7164 14.3984 14.8665 14.3568V14.1796C14.8665 13.8237 15.1551 13.5351 15.511 13.5351C15.867 13.5351 16.1555 13.8237 16.1555 14.1796V14.3375C16.4239 14.4051 16.6741 14.5187 16.886 14.6777C17.1708 14.8912 17.2285 15.2952 17.0149 15.58C16.8013 15.8647 16.3974 15.9225 16.1126 15.7089C15.8544 15.5152 15.3581 15.5009 15.0062 15.6768C14.864 15.7478 14.7897 15.8312 14.7897 15.8769C14.7897 15.954 14.7897 15.9659 14.8755 16.0117C15.0436 16.1015 15.341 16.1566 15.6286 16.21C16.0125 16.2812 16.4095 16.3549 16.7535 16.5385C17.2558 16.8066 17.5214 17.2465 17.5214 17.8105C17.5214 18.3747 17.1824 18.8677 16.5913 19.1633Z" fill="#24272C"/>
<path d="M4.5542 9.10938H16.1558C16.5117 9.10938 16.8003 8.8208 16.8003 8.46484V7.82031C16.8003 7.46436 16.5117 7.17578 16.1558 7.17578H4.5542C4.19825 7.17578 3.90967 7.46436 3.90967 7.82031V8.46484C3.90967 8.8208 4.19825 9.10938 4.5542 9.10938Z" fill="#24272C"/>
<path d="M2.62061 20.7109V21.3555C2.62061 21.7114 2.90918 22 3.26514 22H11.6839C10.9847 21.4794 10.4036 20.8226 9.9625 20.0664H3.26514C2.90918 20.0664 2.62061 20.355 2.62061 20.7109Z" fill="#24272C"/>
<path d="M2.62061 14.2656V14.9102C2.62061 15.2661 2.90918 15.5547 3.26514 15.5547H9.1962C9.33812 14.8583 9.61514 14.2166 9.9625 13.6211H3.26514C2.90918 13.6211 2.62061 13.9097 2.62061 14.2656Z" fill="#24272C"/>
<path d="M1.97607 18.7773H9.39502C9.19998 18.163 9.06592 17.5218 9.06592 16.8438H1.97607C1.62012 16.8438 1.33154 17.1323 1.33154 17.4883V18.1328C1.33154 18.4888 1.62012 18.7773 1.97607 18.7773Z" fill="#24272C"/>
<path d="M1.97607 12.332H10.92C12.0901 11.1414 13.7141 10.3984 15.5112 10.3984H1.97607C1.62012 10.3984 1.33154 10.687 1.33154 11.043V11.6875C1.33154 12.0435 1.62012 12.332 1.97607 12.332Z" fill="#24272C"/>
</g>
<defs>
<clipPath id="clip0">
<rect width="22" height="22" fill="white" transform="translate(-0.000488281)"/>
</clipPath>
</defs>
</svg>
