<svg width="32" height="32" viewBox="0 0 32 32" fill="none" xmlns="http://www.w3.org/2000/svg">
<g clip-path="url(#clip0)">
<path d="M23.0723 10.9231C23.5605 11.4114 23.5605 12.2029 23.0723 12.6909L14.6865 21.0769C14.1982 21.5649 13.407 21.5649 12.9187 21.0769L8.92676 17.0847C8.43848 16.5967 8.43848 15.8052 8.92676 15.3171C9.41479 14.8289 10.2063 14.8289 10.6943 15.3171L13.8025 18.4253L21.3044 10.9231C21.7927 10.4351 22.5842 10.4351 23.0723 10.9231V10.9231ZM31.9995 16C31.9995 24.844 24.8423 32 15.9995 32C7.15552 32 -0.000488281 24.8428 -0.000488281 16C-0.000488281 7.15601 7.15674 0 15.9995 0C24.8435 0 31.9995 7.15723 31.9995 16ZM29.4995 16C29.4995 8.53784 23.4607 2.5 15.9995 2.5C8.53735 2.5 2.49951 8.53882 2.49951 16C2.49951 23.4622 8.53833 29.5 15.9995 29.5C23.4617 29.5 29.4995 23.4612 29.4995 16Z" fill="#F8DD50"/>
</g>
<defs>
<clipPath id="clip0">
<rect width="32" height="32" fill="white" transform="translate(-0.000488281)"/>
</clipPath>
</defs>
</svg>
