<svg width="32" height="32" viewBox="0 0 32 32" fill="none" xmlns="http://www.w3.org/2000/svg">
<path d="M29.5762 29.9015H2.60655C2.1892 29.9011 1.78908 29.7351 1.49394 29.44C1.19881 29.1449 1.03278 28.7448 1.03226 28.3275V9.17097C1.03284 8.75366 1.19891 8.35363 1.49403 8.05859C1.78916 7.76356 2.18924 7.59762 2.60655 7.59717H29.5762C29.9935 7.59762 30.3936 7.76356 30.6887 8.05859C30.9838 8.35363 31.1499 8.75366 31.1505 9.17097V15.6755C31.1505 15.7731 31.1117 15.8666 31.0427 15.9356C30.9738 16.0046 30.8802 16.0433 30.7827 16.0433C30.6852 16.0433 30.5916 16.0046 30.5226 15.9356C30.4537 15.8666 30.4149 15.7731 30.4149 15.6755V9.17097C30.4146 8.94866 30.3261 8.73556 30.1689 8.57841C30.0116 8.42126 29.7985 8.3329 29.5762 8.3327H2.60655C2.38424 8.3329 2.17109 8.42126 2.01385 8.57841C1.85661 8.73556 1.76812 8.94866 1.76779 9.17097V28.3267C1.76805 28.5491 1.85651 28.7623 2.01376 28.9195C2.17101 29.0767 2.3842 29.1651 2.60655 29.1653H29.5762C29.7985 29.1651 30.0117 29.0767 30.169 28.9195C30.3262 28.7623 30.4147 28.5491 30.4149 28.3267V21.8256C30.4149 21.7281 30.4537 21.6345 30.5226 21.5656C30.5916 21.4966 30.6852 21.4578 30.7827 21.4578C30.8802 21.4578 30.9738 21.4966 31.0427 21.5656C31.1117 21.6345 31.1505 21.7281 31.1505 21.8256V28.3267C31.1501 28.7442 30.9842 29.1445 30.689 29.4398C30.3939 29.735 29.9936 29.9011 29.5762 29.9015V29.9015ZM2.60655 7.84235C2.25423 7.84267 1.91643 7.98274 1.66725 8.23182C1.41808 8.4809 1.27789 8.81865 1.27744 9.17097V28.3267C1.27782 28.6791 1.41799 29.0169 1.66717 29.2661C1.91635 29.5152 2.25419 29.6553 2.60655 29.6556H29.5762C29.9285 29.6553 30.2664 29.5152 30.5156 29.2661C30.7647 29.0169 30.9049 28.6791 30.9053 28.3267V21.8256C30.9053 21.7931 30.8924 21.7619 30.8694 21.7389C30.8464 21.7159 30.8152 21.703 30.7827 21.703C30.7502 21.703 30.719 21.7159 30.696 21.7389C30.673 21.7619 30.6601 21.7931 30.6601 21.8256V28.3267C30.6598 28.6141 30.5455 28.8896 30.3423 29.0928C30.139 29.2959 29.8635 29.4102 29.5762 29.4104H2.60655C2.31921 29.4101 2.04374 29.2958 1.84054 29.0927C1.63734 28.8895 1.523 28.6141 1.52261 28.3267V9.17097C1.523 8.88366 1.63734 8.60823 1.84055 8.40511C2.04376 8.202 2.31923 8.08778 2.60655 8.08752H29.5762C29.8635 8.08778 30.139 8.202 30.3422 8.40511C30.5454 8.60823 30.6597 8.88366 30.6601 9.17097V15.6755C30.6601 15.7081 30.673 15.7392 30.696 15.7622C30.719 15.7852 30.7502 15.7981 30.7827 15.7981C30.8152 15.7981 30.8464 15.7852 30.8694 15.7622C30.8924 15.7392 30.9053 15.7081 30.9053 15.6755V9.17097C30.9048 8.81865 30.7646 8.4809 30.5155 8.23182C30.2663 7.98274 29.9285 7.84267 29.5762 7.84235H2.60655Z" fill="#FCD612" stroke="#FCD612" stroke-width="1.2"/>
<path d="M30.0614 22.7096H24.4683C23.9678 22.7142 23.4714 22.6108 23.0077 22.4053C22.5441 22.1999 22.1224 21.8965 21.7669 21.5127C21.4115 21.1288 21.1294 20.6721 20.9368 20.1688C20.7443 19.6656 20.6452 19.1259 20.6452 18.5807C20.6452 18.0355 20.7443 17.4958 20.9368 16.9925C21.1294 16.4893 21.4115 16.0326 21.7669 15.6487C22.1224 15.2649 22.5441 14.9615 23.0077 14.756C23.4714 14.5506 23.9678 14.4472 24.4683 14.4518H30.0614C30.3016 14.4521 30.532 14.5562 30.7019 14.7412C30.8718 14.9262 30.9674 15.177 30.9678 15.4386V21.7227C30.9675 21.9844 30.8719 22.2353 30.702 22.4203C30.532 22.6053 30.3017 22.7093 30.0614 22.7096V22.7096ZM24.4683 14.7464C24.0034 14.742 23.5422 14.8379 23.1114 15.0287C22.6806 15.2194 22.2888 15.5012 21.9586 15.8577C21.6283 16.2142 21.3662 16.6385 21.1873 17.1059C21.0084 17.5734 20.9163 18.0748 20.9163 18.5813C20.9163 19.0877 21.0084 19.5892 21.1873 20.0566C21.3662 20.5241 21.6283 20.9483 21.9586 21.3049C22.2888 21.6614 22.6806 21.9432 23.1114 22.1339C23.5422 22.3246 24.0034 22.4206 24.4683 22.4161H30.0614C30.2301 22.4159 30.3918 22.3428 30.511 22.213C30.6303 22.0831 30.6975 21.907 30.6978 21.7233V15.4386C30.6973 15.255 30.6301 15.0791 30.5109 14.9494C30.3916 14.8196 30.23 14.7467 30.0614 14.7464H24.4683ZM30.0614 22.1215H24.4683C24.0389 22.1257 23.613 22.0373 23.2151 21.8613C22.8172 21.6852 22.4553 21.4251 22.1503 21.0959C21.8452 20.7667 21.6031 20.3749 21.4378 19.9432C21.2726 19.5115 21.1875 19.0484 21.1875 18.5807C21.1875 18.113 21.2726 17.6499 21.4378 17.2182C21.6031 16.7865 21.8452 16.3947 22.1503 16.0655C22.4553 15.7363 22.8172 15.4761 23.2151 15.3001C23.613 15.1241 24.0389 15.0356 24.4683 15.0399H30.0614C30.1585 15.04 30.2516 15.082 30.3203 15.1568C30.389 15.2315 30.4276 15.3329 30.4278 15.4386V21.7227C30.4276 21.8285 30.389 21.9299 30.3203 22.0046C30.2516 22.0794 30.1585 22.1214 30.0614 22.1215V22.1215ZM24.4683 15.3345C24.0745 15.3305 23.6838 15.4114 23.3188 15.5728C22.9538 15.7341 22.6218 15.9726 22.342 16.2745C22.0621 16.5764 21.84 16.9357 21.6884 17.3316C21.5368 17.7276 21.4588 18.1523 21.4588 18.5813C21.4588 19.0103 21.5368 19.435 21.6884 19.8309C21.84 20.2269 22.0621 20.5862 22.342 20.8881C22.6218 21.19 22.9538 21.4285 23.3188 21.5898C23.6838 21.7511 24.0745 21.8321 24.4683 21.828H30.0614C30.0869 21.828 30.1114 21.817 30.1295 21.7974C30.1475 21.7778 30.1577 21.7511 30.1578 21.7233V15.4386C30.1576 15.4109 30.1474 15.3843 30.1294 15.3647C30.1113 15.3451 30.0869 15.334 30.0614 15.334L24.4683 15.3345Z" fill="#FCD612" stroke="#FCD612" stroke-width="1.2"/>
<path d="M25.0401 19.7315C24.8378 19.7589 24.6318 19.7256 24.4483 19.6358C24.2649 19.5461 24.1122 19.404 24.0095 19.2274C23.9069 19.0509 23.8589 18.8478 23.8717 18.644C23.8845 18.4402 23.9574 18.2447 24.0813 18.0824C24.2052 17.92 24.3745 17.798 24.5677 17.7319C24.7609 17.6658 24.9694 17.6585 25.1668 17.7109C25.3642 17.7633 25.5416 17.8731 25.6766 18.0263C25.8116 18.1796 25.8981 18.3695 25.9251 18.5719C25.9612 18.843 25.8883 19.1173 25.7224 19.3347C25.5565 19.5521 25.3111 19.6948 25.0401 19.7315V19.7315ZM24.787 17.839C24.615 17.8618 24.4535 17.935 24.3231 18.0496C24.1927 18.1641 24.0992 18.3147 24.0544 18.4824C24.0096 18.6501 24.0156 18.8273 24.0716 18.9916C24.1275 19.1559 24.231 19.2999 24.3688 19.4054C24.5066 19.5108 24.6726 19.5731 24.8458 19.5842C25.0191 19.5953 25.1917 19.5547 25.3418 19.4677C25.492 19.3807 25.613 19.2511 25.6894 19.0953C25.7659 18.9395 25.7945 18.7645 25.7714 18.5924C25.7408 18.3619 25.6199 18.153 25.4353 18.0116C25.2507 17.8702 25.0175 17.8079 24.7869 17.8383L24.787 17.839ZM24.999 19.4242C24.8574 19.4435 24.7133 19.4202 24.5849 19.3575C24.4565 19.2948 24.3496 19.1954 24.2777 19.0718C24.2058 18.9483 24.1722 18.8063 24.1811 18.6636C24.19 18.521 24.241 18.3842 24.3277 18.2706C24.4143 18.157 24.5328 18.0716 24.668 18.0253C24.8032 17.979 24.9491 17.9739 25.0872 18.0105C25.2253 18.0472 25.3495 18.124 25.4439 18.2312C25.5384 18.3385 25.5989 18.4713 25.6178 18.613C25.6431 18.8026 25.5921 18.9945 25.4761 19.1465C25.3601 19.2986 25.1886 19.3985 24.999 19.4242V19.4242ZM24.8281 18.1463C24.7169 18.1609 24.6124 18.2082 24.528 18.2822C24.4436 18.3562 24.3831 18.4536 24.354 18.562C24.325 18.6705 24.3288 18.7851 24.3649 18.8913C24.4011 18.9976 24.4679 19.0908 24.557 19.159C24.6461 19.2273 24.7535 19.2675 24.8655 19.2748C24.9775 19.282 25.0891 19.2558 25.1863 19.1995C25.2834 19.1433 25.3616 19.0595 25.4111 18.9587C25.4606 18.858 25.479 18.7448 25.4641 18.6335C25.4445 18.4845 25.3664 18.3494 25.2471 18.2579C25.1278 18.1664 24.9771 18.126 24.828 18.1456L24.8281 18.1463Z" fill="#FCD612" stroke="#FCD612" stroke-width="1.2"/>
<path d="M12.6851 8.33286C12.6375 8.33288 12.5903 8.32347 12.5463 8.30515C12.4789 8.27767 12.4211 8.23077 12.3803 8.17038C12.3395 8.11 12.3176 8.03886 12.3173 7.96599C12.317 7.89312 12.3383 7.82181 12.3786 7.76111C12.419 7.7004 12.4764 7.65304 12.5436 7.62503L22.2478 3.57958C22.381 3.52409 22.5242 3.49663 22.6684 3.49891C22.8127 3.50119 22.9549 3.53316 23.0862 3.59283C23.2176 3.6525 23.3352 3.73859 23.4319 3.84574C23.5285 3.95288 23.602 4.07877 23.6478 4.21557L24.8622 7.84765C24.8775 7.89348 24.8837 7.94189 24.8804 7.99012C24.877 8.03835 24.8642 8.08544 24.8426 8.12871C24.8211 8.17197 24.7912 8.21056 24.7547 8.24227C24.7182 8.27398 24.6758 8.29818 24.63 8.31349C24.5374 8.34322 24.4368 8.33557 24.3498 8.29219C24.2628 8.24881 24.1961 8.17313 24.1641 8.0813L22.9503 4.44923C22.9365 4.40823 22.9145 4.37049 22.8856 4.33838C22.8566 4.30627 22.8214 4.28047 22.782 4.2626C22.7426 4.24472 22.7 4.23515 22.6568 4.23448C22.6136 4.23382 22.5707 4.24207 22.5308 4.25873L12.8266 8.30417C12.7819 8.32319 12.7337 8.33295 12.6851 8.33286V8.33286ZM22.6516 3.74434C22.5454 3.74432 22.4403 3.76531 22.3422 3.80613L12.638 7.85157C12.6155 7.86077 12.5962 7.87648 12.5826 7.8967C12.569 7.91692 12.5617 7.94073 12.5617 7.96509C12.5617 7.98945 12.569 8.01326 12.5826 8.03348C12.5962 8.0537 12.6155 8.06941 12.638 8.07861C12.6528 8.08474 12.6686 8.08789 12.6845 8.08789C12.7005 8.08789 12.7162 8.08474 12.731 8.07861L22.4356 4.03316C22.5067 4.00343 22.5831 3.98869 22.6601 3.98985C22.7371 3.99101 22.813 4.00804 22.8832 4.03989C22.9533 4.07174 23.0161 4.11772 23.0676 4.17495C23.1192 4.23218 23.1583 4.29943 23.1827 4.37249L24.3971 8.00456C24.4074 8.03542 24.4295 8.06091 24.4586 8.07544C24.4877 8.08997 24.5214 8.09234 24.5523 8.08204C24.5831 8.07173 24.6086 8.04959 24.6231 8.02049C24.6377 7.99138 24.64 7.9577 24.6297 7.92684L23.4151 4.29501C23.3618 4.1348 23.2593 3.99547 23.1222 3.89683C22.9852 3.7982 22.8205 3.74527 22.6516 3.74557V3.74434Z" fill="#FCD612" stroke="#FCD612" stroke-width="1.2"/>
<path d="M6.15602 8.33242C6.07181 8.33247 5.99014 8.30362 5.92464 8.2507C5.85914 8.19777 5.81379 8.12396 5.79617 8.04162C5.77855 7.95927 5.78972 7.87337 5.82781 7.79827C5.86591 7.72317 5.92863 7.66342 6.00548 7.629L18.3941 2.0718C18.623 1.96991 18.8829 1.96263 19.1171 2.05154C19.3513 2.14046 19.5409 2.31836 19.6445 2.54646L20.5965 4.65499C20.6365 4.74386 20.6396 4.84496 20.6051 4.93609C20.5706 5.02723 20.5014 5.10095 20.4125 5.14106C20.3237 5.18118 20.2226 5.18441 20.1315 5.15005C20.0403 5.11568 19.9665 5.04653 19.9262 4.95779L18.9742 2.84926C18.951 2.7982 18.9085 2.7584 18.856 2.73856C18.8036 2.71871 18.7454 2.72043 18.6942 2.74334L6.30656 8.30006C6.25927 8.32148 6.20794 8.33252 6.15602 8.33242V8.33242ZM18.7805 2.23435C18.6819 2.23432 18.5843 2.25521 18.4944 2.29564L6.10576 7.85261C6.09106 7.85919 6.0778 7.8686 6.06673 7.8803C6.05567 7.89201 6.04702 7.90578 6.04129 7.92083C6.03555 7.93589 6.03283 7.95192 6.03329 7.96802C6.03376 7.98412 6.03739 7.99997 6.04398 8.01467C6.05781 8.04394 6.08243 8.06673 6.11269 8.07825C6.14295 8.08977 6.17649 8.08912 6.20629 8.07645L18.5949 2.51925C18.7054 2.4701 18.8308 2.4666 18.9438 2.50949C19.0569 2.55237 19.1484 2.63819 19.1985 2.74824L20.1506 4.85677C20.1639 4.88643 20.1886 4.90954 20.219 4.92104C20.2494 4.93253 20.2832 4.93146 20.3129 4.91807C20.3425 4.90467 20.3656 4.88005 20.3771 4.84961C20.3886 4.81917 20.3875 4.78541 20.3742 4.75576L19.4221 2.64723C19.3662 2.52403 19.2759 2.41957 19.1621 2.34635C19.0483 2.27313 18.9158 2.23424 18.7805 2.23435V2.23435Z" fill="#FCD612" stroke="#FCD612" stroke-width="1.2"/>
</svg>
