<svg width="33" height="33" viewBox="0 0 33 33" fill="none" xmlns="http://www.w3.org/2000/svg">
<path d="M6.70949 32.6815C6.44634 32.6856 6.19211 32.5919 6.00207 32.4207C5.85094 32.2923 5.74386 32.1245 5.69446 31.9388C5.64506 31.753 5.65557 31.5576 5.72465 31.3774L6.72336 28.5998C6.83816 28.2974 6.85461 27.9697 6.77062 27.6585C6.68663 27.3473 6.506 27.0667 6.25175 26.8523C3.94701 24.9173 2.29027 22.3942 1.48319 19.59C0.676105 16.7858 0.753478 13.8216 1.70589 11.058C2.65831 8.29439 4.44469 5.85069 6.84761 4.02429C9.25052 2.1979 12.1663 1.06759 15.2402 0.770925V0.770925C17.5461 0.533305 19.8794 0.77137 22.0775 1.46853C24.2755 2.16569 26.2853 3.30516 27.9669 4.8075C29.6484 6.30985 30.9612 8.13892 31.8137 10.1672C32.6662 12.1955 33.0379 14.3741 32.9029 16.5513C32.7679 18.7285 32.1294 20.8518 31.0319 22.7732C29.9345 24.6946 28.4045 26.3679 26.5487 27.6763C24.6928 28.9847 22.5557 29.8969 20.2864 30.3492C18.0171 30.8015 15.6701 30.783 13.4092 30.2951C13.0545 30.2329 12.6882 30.2692 12.355 30.3994L7.13949 32.6033C7.003 32.6556 6.8569 32.6822 6.70949 32.6815V32.6815ZM15.4621 2.77919C12.8111 3.05645 10.3013 4.04644 8.23349 5.63055C6.16568 7.21465 4.62755 9.32568 3.80339 11.7107C2.97923 14.0957 2.90401 16.6535 3.58674 19.0777C4.26946 21.5019 5.68117 23.6896 7.65272 25.3787C8.22501 25.8566 8.63241 26.4843 8.82271 27.1814C9.013 27.8784 8.97752 28.613 8.7208 29.2909L8.48499 29.943L11.5227 28.6389C12.2623 28.3261 13.0901 28.2482 13.8808 28.4172C15.6397 28.7845 17.4568 28.8331 19.235 28.5606C22.6829 27.8938 25.7321 26.0195 27.7648 23.3177C29.7974 20.6158 30.6614 17.2885 30.1816 14.01C29.7018 10.7316 27.9142 7.7472 25.181 5.66178C22.4478 3.57637 18.9734 2.54589 15.4621 2.77919Z" fill="#E6D88E"/>
<path d="M12.4382 15.6372C12.4409 15.9241 12.353 16.2052 12.1855 16.445C12.018 16.6847 11.7785 16.8723 11.4974 16.9838C11.2163 17.0954 10.9063 17.1259 10.6067 17.0715C10.3071 17.0172 10.0315 16.8804 9.81479 16.6784C9.59807 16.4765 9.45005 16.2186 9.3895 15.9375C9.32896 15.6564 9.35863 15.3646 9.47475 15.0994C9.59086 14.8341 9.78819 14.6073 10.0417 14.4476C10.2952 14.288 10.5934 14.2028 10.8985 14.2028C11.3045 14.2027 11.694 14.3535 11.9824 14.6221C12.2707 14.8908 12.4345 15.2556 12.4382 15.6372Z" fill="#E6D88E"/>
<path d="M18.8605 15.6373C18.8632 15.9247 18.7749 16.2063 18.6068 16.4464C18.4387 16.6864 18.1984 16.8739 17.9165 16.9851C17.6346 17.0963 17.3238 17.126 17.0239 17.0706C16.7239 17.0152 16.4483 16.877 16.2322 16.6738C16.016 16.4706 15.8691 16.2115 15.8101 15.9295C15.7511 15.6475 15.7828 15.3554 15.901 15.0903C16.0193 14.8253 16.2188 14.5994 16.4741 14.4413C16.7294 14.2833 17.029 14.2002 17.3347 14.2028C17.7394 14.2028 18.1275 14.3539 18.4136 14.623C18.6997 14.892 18.8605 15.2568 18.8605 15.6373V15.6373Z" fill="#E6D88E"/>
<path d="M25.2828 15.6373C25.2855 15.9247 25.1972 16.2063 25.0291 16.4464C24.861 16.6864 24.6207 16.8739 24.3388 16.9851C24.0569 17.0963 23.7461 17.126 23.4462 17.0706C23.1462 17.0152 22.8706 16.877 22.6545 16.6738C22.4383 16.4706 22.2914 16.2115 22.2324 15.9295C22.1734 15.6475 22.2051 15.3554 22.3234 15.0903C22.4416 14.8253 22.6411 14.5994 22.8964 14.4413C23.1517 14.2833 23.4513 14.2002 23.757 14.2028C24.1617 14.2028 24.5498 14.3539 24.8359 14.623C25.1221 14.892 25.2828 15.2568 25.2828 15.6373V15.6373Z" fill="#E6D88E"/>
</svg>
