<svg width="32" height="32" viewBox="0 0 32 32" fill="none" xmlns="http://www.w3.org/2000/svg">
<path d="M23.5738 12.0108C23.2138 12.5727 23.3599 13.3316 23.9002 13.7066L27.6558 16.31C28.1827 16.6856 28.9425 16.5324 29.294 15.9757L31.8026 12.0629C32.1626 11.5011 32.0165 10.7422 31.4761 10.3672C30.9358 9.99282 30.206 10.1447 29.8459 10.7066L29.0929 11.8812C27.6167 5.65998 22.2046 1.03223 15.7723 1.03223C10.3168 1.03223 5.37972 4.39197 3.19569 9.59112C2.9353 10.2096 3.20669 10.9303 3.80206 11.2011C4.39742 11.4712 5.09059 11.189 5.35038 10.5699C7.16092 6.26189 11.2515 3.47799 15.7723 3.47799C21.2302 3.47799 25.8 7.49812 26.8911 12.8403L25.2046 11.6714C24.6643 11.2971 23.9344 11.449 23.5738 12.0108V12.0108Z" fill="#F1DC6F"/>
<path d="M3.44315 14.4751C3.14176 14.538 2.86843 14.7293 2.6976 14.9955L0.193731 18.9074C-0.133285 19.4183 -0.0374988 20.1255 0.414589 20.5208C0.94355 20.9834 1.76414 20.8614 2.14668 20.2634L2.89833 19.0891C4.37173 25.3088 9.7736 29.9355 16.1937 29.9355C21.7091 29.9355 26.6613 26.5162 28.8101 21.2255C29.0627 20.6034 28.7839 19.8859 28.1866 19.6235C27.5893 19.3604 26.9011 19.6515 26.6485 20.2729C24.8676 24.6575 20.764 27.4903 16.1937 27.4903C10.7461 27.4903 6.18496 23.4705 5.09593 18.1302L6.7792 19.2988C7.31854 19.6731 8.04761 19.5212 8.40697 18.9595C8.76632 18.3977 8.6205 17.639 8.08117 17.2641L4.33268 14.6613C4.07644 14.4783 3.74698 14.4116 3.44315 14.4751Z" fill="#F1DC6F"/>
</svg>
