<svg width="21" height="21" viewBox="0 0 21 21" fill="none" xmlns="http://www.w3.org/2000/svg">
<path d="M12.7778 10.1573C11.9556 10.7068 10.9889 11 10 11C8.67433 10.9987 7.40334 10.4714 6.46595 9.53405C5.52856 8.59666 5.00134 7.32567 5 6C5 5.0111 5.29325 4.0444 5.84265 3.22215C6.39206 2.3999 7.17295 1.75904 8.08658 1.3806C9.00021 1.00217 10.0055 0.90315 10.9755 1.09608C11.9454 1.289 12.8363 1.76521 13.5355 2.46447C14.2348 3.16373 14.711 4.05465 14.9039 5.02455C15.0969 5.99445 14.9978 6.99979 14.6194 7.91342C14.241 8.82705 13.6001 9.60794 12.7778 10.1573Z" fill="#F8C02D"/>
<path d="M12.2903 12H8.52387C6.52903 12.002 4.61648 12.7954 3.20592 14.2059C1.79536 15.6165 1.00202 17.529 1 19.5239V20.7781H19.8154V19.5239C19.8134 17.529 19.02 15.6165 17.6095 14.2059C16.1989 12.7954 14.2851 12.002 12.2903 12Z" fill="#202020"/>
</svg>
