<svg width="19" height="17" viewBox="0 0 19 17" fill="none" xmlns="http://www.w3.org/2000/svg">
<path d="M5.42099 9.81598C5.9173 9.81494 6.41302 9.78154 6.90499 9.71598V4.55398C6.41302 4.48844 5.9173 4.45503 5.42099 4.45398C2.48099 4.45398 0.0969852 5.53498 0.0969852 6.86898V7.39298C0.0959852 8.73498 2.48099 9.81598 5.42099 9.81598Z" fill="#3B4851"/>
<path d="M5.42099 12.512C5.9173 12.5109 6.41301 12.4775 6.90499 12.412V10.905C6.41302 10.9705 5.9173 11.004 5.42099 11.005C2.85399 11.005 0.711985 10.181 0.208985 9.08499C0.13613 9.23989 0.0979098 9.40882 0.0969852 9.58V10.104C0.0959852 11.431 2.48099 12.512 5.42099 12.512Z" fill="#3B4851"/>
<path d="M6.90498 13.717V13.599C6.41302 13.6646 5.9173 13.698 5.42098 13.699C2.85398 13.699 0.711985 12.875 0.208985 11.779C0.136099 11.9339 0.0978774 12.1028 0.0969849 12.274L0.0969849 12.798C0.0969849 14.132 2.48098 15.213 5.42098 15.213C5.98426 15.214 6.54683 15.1728 7.10398 15.09C6.97313 14.8278 6.90469 14.539 6.90399 14.246L6.90498 13.717Z" fill="#3B4851"/>
<path d="M13.098 0.372986C10.158 0.372986 7.77399 1.45399 7.77399 2.78799V3.31199C7.77399 4.64599 10.158 5.72699 13.098 5.72699C16.038 5.72699 18.422 4.64599 18.422 3.31199V2.78799C18.422 1.45399 16.035 0.372986 13.098 0.372986Z" fill="#3B4851"/>
<path d="M13.098 6.90898C10.531 6.90898 8.38899 6.08498 7.88599 4.98898C7.8131 5.14388 7.77488 5.3128 7.77399 5.48399V6.00799C7.77399 7.34199 10.158 8.42298 13.098 8.42298C16.038 8.42298 18.422 7.34199 18.422 6.00799V5.48399C18.4211 5.3128 18.3829 5.14388 18.31 4.98898C17.807 6.08498 15.665 6.90898 13.098 6.90898Z" fill="#3B4851"/>
<path d="M13.098 9.605C10.531 9.605 8.38899 8.781 7.88599 7.685C7.8131 7.83989 7.77488 8.00881 7.77399 8.17999V8.70399C7.77399 10.038 10.158 11.119 13.098 11.119C16.038 11.119 18.422 10.038 18.422 8.70399V8.17999C18.4211 8.00881 18.3829 7.83989 18.31 7.685C17.807 8.781 15.665 9.605 13.098 9.605Z" fill="#3B4851"/>
<path d="M13.098 12.447C10.531 12.447 8.38899 11.623 7.88599 10.527C7.81313 10.6819 7.77491 10.8508 7.77399 11.022V11.546C7.77399 12.88 10.158 13.961 13.098 13.961C16.038 13.961 18.422 12.88 18.422 11.546V11.026C18.4211 10.8548 18.3829 10.6859 18.31 10.531C17.807 11.626 15.665 12.447 13.098 12.447Z" fill="#3B4851"/>
<path d="M13.098 15.139C10.531 15.139 8.38899 14.315 7.88599 13.219C7.81313 13.3739 7.77491 13.5428 7.77399 13.714V14.239C7.77399 15.573 10.158 16.654 13.098 16.654C16.038 16.654 18.422 15.573 18.422 14.239V13.715C18.4211 13.5438 18.3828 13.3749 18.31 13.22C17.807 14.319 15.665 15.139 13.098 15.139Z" fill="#3B4851"/>
</svg>
