<svg width="21" height="21" viewBox="0 0 21 21" fill="none" xmlns="http://www.w3.org/2000/svg">
<path d="M8.02699 7.49502L6.76699 6.30402C6.92088 6.03103 7.00278 5.72338 7.00499 5.41002C7.00782 4.99219 6.87152 4.5853 6.61758 4.25349C6.36364 3.92167 6.0065 3.6838 5.60245 3.57736C5.1984 3.47092 4.77042 3.50197 4.38596 3.66561C4.0015 3.82926 3.68243 4.11619 3.47905 4.48118C3.27566 4.84617 3.19951 5.26847 3.26262 5.68151C3.32572 6.09455 3.52449 6.47485 3.82758 6.76246C4.13067 7.05007 4.52086 7.22864 4.93664 7.27002C5.35242 7.3114 5.77015 7.21324 6.12399 6.99102L7.38199 8.18102C7.5711 7.92932 7.78741 7.69926 8.02699 7.49502Z" fill="#D4D4D7"/>
<path d="M13.357 7.34501L15.031 4.52801C15.4636 4.6483 15.9253 4.60692 16.3297 4.41162C16.7341 4.21632 17.0535 3.88046 17.2283 3.4668C17.403 3.05314 17.4212 2.58999 17.2794 2.1639C17.1376 1.73782 16.8454 1.37795 16.4576 1.15156C16.0698 0.92517 15.6128 0.847743 15.172 0.93375C14.7313 1.01976 14.3369 1.26331 14.0627 1.6189C13.7884 1.97449 13.653 2.41778 13.6818 2.86593C13.7105 3.31407 13.9015 3.73641 14.219 4.05401L12.55 6.86001C12.8364 6.99079 13.1071 7.15349 13.357 7.34501Z" fill="#D4D4D7"/>
<path d="M19.132 9.70401C18.7504 9.70471 18.3782 9.82231 18.0655 10.041C17.7528 10.2596 17.5146 10.5689 17.383 10.927L15.057 10.697C15.057 10.715 15.057 10.731 15.057 10.749C15.0565 11.0465 15.025 11.3431 14.963 11.634L17.288 11.864C17.3442 12.2161 17.5001 12.5448 17.7372 12.811C17.9744 13.0773 18.2829 13.2701 18.6261 13.3665C18.9694 13.4629 19.3331 13.459 19.6743 13.3551C20.0154 13.2512 20.3196 13.0518 20.5509 12.7804C20.7822 12.5091 20.9309 12.1771 20.9794 11.8238C21.0279 11.4706 20.9741 11.1108 20.8245 10.7872C20.675 10.4635 20.4358 10.1895 20.1353 9.99749C19.8348 9.80553 19.4856 9.70369 19.129 9.70401H19.132Z" fill="#D4D4D7"/>
<path d="M12.712 17.053L12.192 14.78C11.8948 14.8844 11.5869 14.9555 11.274 14.992L11.795 17.265C11.3937 17.4752 11.0828 17.8245 10.9204 18.2474C10.7579 18.6703 10.7552 19.1378 10.9126 19.5626C11.07 19.9874 11.3768 20.3403 11.7756 20.5552C12.1743 20.7702 12.6378 20.8324 13.0791 20.7304C13.5205 20.6284 13.9096 20.369 14.1735 20.0008C14.4375 19.6327 14.5583 19.181 14.5133 18.7302C14.4683 18.2794 14.2606 17.8605 13.929 17.5518C13.5975 17.2431 13.1648 17.0658 12.712 17.053Z" fill="#D4D4D7"/>
<path d="M6.61201 11.652L3.71201 12.622C3.466 12.2472 3.09329 11.9735 2.66203 11.851C2.23078 11.7284 1.76983 11.7652 1.3635 11.9547C0.957171 12.1441 0.632632 12.4735 0.449252 12.8827C0.265872 13.2918 0.235912 13.7532 0.364853 14.1826C0.493793 14.612 0.773014 14.9806 1.15143 15.221C1.52986 15.4614 1.98218 15.5575 2.42565 15.4917C2.86913 15.426 3.27411 15.2028 3.56651 14.8629C3.85891 14.5231 4.01918 14.0893 4.01801 13.641C4.01801 13.598 4.00901 13.558 4.00501 13.516L6.91001 12.543C6.77819 12.2579 6.67825 11.9591 6.61201 11.652Z" fill="#D4D4D7"/>
<path d="M10.788 13.955C12.5581 13.955 13.993 12.5201 13.993 10.75C13.993 8.97994 12.5581 7.54501 10.788 7.54501C9.01794 7.54501 7.58301 8.97994 7.58301 10.75C7.58301 12.5201 9.01794 13.955 10.788 13.955Z" fill="#EDAC01"/>
</svg>
