<svg width="16" height="16" viewBox="0 0 16 16" fill="none" xmlns="http://www.w3.org/2000/svg">
<path d="M7.72398 7.89997C8.50305 7.89997 9.26461 7.66896 9.91238 7.23613C10.5601 6.80331 11.065 6.18812 11.3631 5.46836C11.6613 4.74861 11.7393 3.9566 11.5873 3.19251C11.4353 2.42842 11.0602 1.72656 10.5093 1.17568C9.9584 0.624802 9.25654 0.249648 8.49244 0.0976612C7.72835 -0.0543259 6.93635 0.0236793 6.21659 0.321813C5.49684 0.619946 4.88165 1.12482 4.44883 1.77258C4.016 2.42035 3.78498 3.18191 3.78498 3.96097C3.78604 5.00534 4.20138 6.00662 4.93986 6.7451C5.67834 7.48357 6.67962 7.89892 7.72398 7.89997ZM9.20098 8.88497H6.24298C4.67631 8.88656 3.17425 9.50963 2.06644 10.6174C0.958636 11.7252 0.335573 13.2273 0.333984 14.794V15.779H15.111V14.794C15.1094 13.2273 14.4863 11.7252 13.3785 10.6174C12.2707 9.50963 10.7687 8.88656 9.20198 8.88497H9.20098Z" fill="#3B4851"/>
</svg>
