<svg width="20" height="19" viewBox="0 0 20 19" fill="none" xmlns="http://www.w3.org/2000/svg">
<path d="M19.313 7.498C19.2805 7.39792 19.2207 7.30893 19.1403 7.24107C19.0599 7.17321 18.9621 7.12919 18.858 7.114L12.897 6.247L10.224 0.840999C10.1774 0.746765 10.1053 0.667441 10.016 0.61198C9.92667 0.55652 9.82362 0.52713 9.71848 0.52713C9.61334 0.52713 9.5103 0.55652 9.42097 0.61198C9.33165 0.667441 9.25961 0.746765 9.21298 0.840999L6.54498 6.247L0.579982 7.114C0.475886 7.12922 0.378124 7.17326 0.297741 7.24113C0.217359 7.309 0.157561 7.39799 0.125106 7.49807C0.09265 7.59814 0.0888305 7.70529 0.114079 7.80742C0.139327 7.90955 0.192636 8.00258 0.267982 8.076L4.58498 12.284L3.56498 18.225C3.54736 18.3286 3.55906 18.4351 3.59875 18.5325C3.63844 18.6298 3.70454 18.7141 3.78961 18.7759C3.87467 18.8377 3.9753 18.8744 4.08015 18.8821C4.185 18.8897 4.28989 18.8678 4.38298 18.819L9.71898 16.014L15.055 18.819C15.1481 18.8678 15.253 18.8897 15.3578 18.8821C15.4627 18.8744 15.5633 18.8377 15.6484 18.7759C15.7334 18.7141 15.7995 18.6298 15.8392 18.5325C15.8789 18.4351 15.8906 18.3286 15.873 18.225L14.854 12.284L19.171 8.076C19.2462 8.00248 19.2993 7.90939 19.3244 7.80725C19.3495 7.70512 19.3456 7.598 19.313 7.498Z" fill="#3B4851"/>
</svg>
