<svg width="25" height="23" viewBox="0 0 25 23" fill="none" xmlns="http://www.w3.org/2000/svg">
<path d="M12.4995 0C5.59326 0 -0.000488281 5.27992 -0.000488281 11.7918C-0.000488281 17.0027 3.58076 21.4217 8.54639 22.9797C9.17139 23.0907 9.40055 22.7257 9.40055 22.4127C9.40055 22.1327 9.39014 21.3907 9.38493 20.4077C5.90785 21.1187 5.17451 18.8257 5.17451 18.8257C4.60576 17.4647 3.78389 17.1007 3.78389 17.1007C2.65159 16.3698 3.87139 16.3848 3.87139 16.3848C5.1266 16.4668 5.78597 17.5997 5.78597 17.5997C6.90055 19.4027 8.71201 18.8817 9.42659 18.5807C9.53909 17.8177 9.86097 17.2987 10.2183 17.0037C7.44222 16.7088 4.52451 15.6948 4.52451 11.1768C4.52451 9.88985 5.00889 8.83787 5.81097 8.01288C5.67034 7.71488 5.24847 6.5159 5.92034 4.89193C5.92034 4.89193 6.96722 4.57593 9.35785 6.10091C10.3578 5.83891 11.4203 5.70892 12.4828 5.70292C13.5453 5.70892 14.6078 5.83891 15.6078 6.10091C17.9828 4.57593 19.0297 4.89193 19.0297 4.89193C19.7016 6.5159 19.2797 7.71488 19.1547 8.01288C19.9516 8.83787 20.436 9.88985 20.436 11.1768C20.436 15.7068 17.5141 16.7038 14.7328 16.9937C15.1703 17.3477 15.5766 18.0707 15.5766 19.1757C15.5766 20.7537 15.561 22.0217 15.561 22.4047C15.561 22.7137 15.7797 23.0827 16.4203 22.9647C21.4214 21.4167 24.9995 16.9947 24.9995 11.7918C24.9995 5.27992 19.4026 0 12.4995 0Z" fill="#D0D2D4"/>
</svg>
