<svg width="24" height="25" viewBox="0 0 24 25" fill="none" xmlns="http://www.w3.org/2000/svg">
<g clip-path="url(#clip0)">
<path d="M12.0035 6.08105C8.60052 6.08105 5.84552 8.95397 5.84552 12.4956C5.84552 16.0404 8.60352 18.9102 12.0035 18.9102C15.4065 18.9102 18.1615 16.0373 18.1615 12.4956C18.1615 8.95085 15.4035 6.08105 12.0035 6.08105ZM12.0035 16.6592C9.79452 16.6592 8.00652 14.7956 8.00652 12.4956C8.00652 10.1956 9.79552 8.3321 12.0035 8.3321C14.2115 8.3321 16.0005 10.1956 16.0005 12.4956C16.0015 14.7956 14.2125 16.6592 12.0035 16.6592Z" fill="#D0D2D4"/>
<path d="M16.9469 0.0804809C14.7389 -0.0268108 9.26994 -0.0216024 7.05994 0.0804809C5.11794 0.175273 3.40494 0.663814 2.02395 2.10236C-0.284054 4.50652 0.0109455 7.74611 0.0109455 12.4972C0.0109455 17.3597 -0.249054 20.5242 2.02395 22.8919C4.34094 25.3044 7.49594 24.9888 12.0029 24.9888C16.6269 24.9888 18.2229 24.9919 19.8579 24.3326C22.0809 23.4336 23.7589 21.3638 23.9229 17.6461C24.0269 15.3451 24.0209 9.64923 23.9229 7.34715C23.7249 2.95861 21.4639 0.297148 16.9469 0.0804809ZM20.4419 21.3013C18.9289 22.8774 16.8299 22.7367 11.9739 22.7367C6.97394 22.7367 4.96894 22.8138 3.50594 21.2857C1.82095 19.5388 2.12595 16.7336 2.12595 12.4805C2.12595 6.72527 1.55895 2.58048 7.10394 2.28465C8.37794 2.23777 8.75294 2.22215 11.9599 2.22215L12.0049 2.2534C17.3339 2.2534 21.5149 1.67215 21.7659 7.44715C21.8229 8.76486 21.8359 9.16069 21.8359 12.4961C21.8349 17.644 21.9289 19.7451 20.4419 21.3013Z" fill="#D0D2D4"/>
<path d="M18.4055 7.32702C19.2002 7.32702 19.8445 6.65591 19.8445 5.82806C19.8445 5.00021 19.2002 4.3291 18.4055 4.3291C17.6108 4.3291 16.9665 5.00021 16.9665 5.82806C16.9665 6.65591 17.6108 7.32702 18.4055 7.32702Z" fill="#D0D2D4"/>
</g>
<defs>
<clipPath id="clip0">
<rect width="24" height="25" fill="white" transform="translate(-0.000488281)"/>
</clipPath>
</defs>
</svg>
