<svg width="25" height="24" viewBox="0 0 25 24" fill="none" xmlns="http://www.w3.org/2000/svg">
<g clip-path="url(#clip0)">
<path d="M24.9933 24.0002V23.9992H24.9995V15.1972C24.9995 10.8912 24.0339 7.57422 18.7901 7.57422C16.2693 7.57422 14.5776 8.90222 13.887 10.1612H13.8141V7.97622H8.84222V23.9992H14.0193V16.0652C14.0193 13.9762 14.4318 11.9562 17.1266 11.9562C19.7818 11.9562 19.8214 14.3402 19.8214 16.1992V24.0002H24.9933Z" fill="#D0D2D4"/>
<path d="M0.412018 7.97705H5.59535V24H0.412018V7.97705Z" fill="#D0D2D4"/>
<path d="M3.0016 0C1.3443 0 -0.000488281 1.291 -0.000488281 2.882C-0.000488281 4.473 1.3443 5.791 3.0016 5.791C4.65889 5.791 6.00368 4.473 6.00368 2.882C6.00264 1.291 4.65785 0 3.0016 0V0Z" fill="#D0D2D4"/>
</g>
<defs>
<clipPath id="clip0">
<rect width="25" height="24" fill="white" transform="translate(-0.000488281)"/>
</clipPath>
</defs>
</svg>
