<svg width="22" height="22" viewBox="0 0 22 22" fill="none" xmlns="http://www.w3.org/2000/svg">
<path d="M20.1667 12H1.83333C1.37333 12 1 11.552 1 11C1 10.448 1.37333 10 1.83333 10H20.1667C20.6267 10 21 10.448 21 11C21 11.552 20.6267 12 20.1667 12Z" fill="white"/>
<path d="M20.1667 6H1.83333C1.37333 6 1 5.552 1 5C1 4.448 1.37333 4 1.83333 4H20.1667C20.6267 4 21 4.448 21 5C21 5.552 20.6267 6 20.1667 6Z" fill="white"/>
<path d="M20.1667 18H1.83333C1.37333 18 1 17.552 1 17C1 16.448 1.37333 16 1.83333 16H20.1667C20.6267 16 21 16.448 21 17C21 17.552 20.6267 18 20.1667 18Z" fill="white"/>
</svg>
