<svg width="277" height="242" viewBox="0 0 277 242" fill="none" xmlns="http://www.w3.org/2000/svg">
<path d="M-180.526 161.252H-45.4262C-34.4266 161.252 -23.8776 157.012 -16.0997 149.466C-8.32184 141.919 -3.9523 131.684 -3.9523 121.011C-3.96542 110.347 -8.34079 100.124 -16.1172 92.5874C-23.8937 85.0511 -34.4352 80.8181 -45.4262 80.8181H-58.7677C-64.2141 80.8181 -69.6072 79.7772 -74.6391 77.7549C-79.6709 75.7326 -84.243 72.7685 -88.0942 69.0317C-91.9454 65.295 -95.0003 60.8589 -97.0846 55.9766C-99.1689 51.0943 -100.242 45.8615 -100.242 40.577C-100.248 35.2884 -99.1802 30.0505 -97.0988 25.1626C-95.0175 20.2748 -91.9636 15.833 -88.1117 12.0912C-84.2599 8.34935 -79.6856 5.38091 -74.6505 3.3556C-69.6155 1.3303 -64.2183 0.287838 -58.7677 0.287842L235.526 0.287842C246.526 0.287842 257.075 4.52751 264.853 12.0742C272.63 19.6208 277 29.8563 277 40.5289C277.006 45.8175 275.939 51.0555 273.857 55.9433C271.776 60.8311 268.722 65.2729 264.87 69.0147C261.018 72.7566 256.444 75.725 251.409 77.7503C246.374 79.7756 240.977 80.8181 235.526 80.8181H88.3978C77.3982 80.8181 66.8491 85.0577 59.0713 92.6044C51.2934 100.151 46.9239 110.387 46.9239 121.059C46.9239 131.732 51.2934 141.967 59.0713 149.514C66.8491 157.061 77.3982 161.3 88.3978 161.3H113.755C124.747 161.297 135.291 165.529 143.068 173.066C150.845 180.603 155.219 190.828 155.229 201.493C155.231 206.778 154.159 212.012 152.076 216.895C149.992 221.778 146.937 226.214 143.085 229.951C139.234 233.689 134.661 236.653 129.629 238.674C124.596 240.696 119.202 241.736 113.755 241.734H-180.526C-185.973 241.736 -191.367 240.696 -196.399 238.674C-201.432 236.653 -206.005 233.689 -209.856 229.951C-213.708 226.214 -216.763 221.778 -218.846 216.895C-220.93 212.012 -222.002 206.778 -222 201.493C-222.002 196.208 -220.93 190.975 -218.846 186.092C-216.763 181.209 -213.708 176.772 -209.856 173.035C-206.005 169.298 -201.432 166.334 -196.399 164.312C-191.367 162.29 -185.973 161.251 -180.526 161.252Z" fill="url(#paint0_linear)"/>
<defs>
<linearGradient id="paint0_linear" x1="-86.5" y1="-191.02" x2="257.312" y2="215.595" gradientUnits="userSpaceOnUse">
<stop offset="0.247592" stop-color="#464B54"/>
<stop offset="1" stop-color="#292C31" stop-opacity="0"/>
</linearGradient>
</defs>
</svg>
